<svg width="42" height="41" viewBox="0 0 42 41" fill="none" xmlns="http://www.w3.org/2000/svg">
<path d="M9.19172 35.832V38.8086H2.01984V35.832H9.19172ZM0.859688 35.0352V34.2969H5.14875V33.4941C3.27375 33.4238 2.21906 32.9316 2.21906 32.0234C2.21906 31.0566 3.44367 30.5586 5.60578 30.5469C7.76203 30.5586 8.98078 31.0566 8.98078 32.0234C8.98078 32.9316 7.93195 33.4238 6.06281 33.4941V34.2969H10.3519V35.0352H0.859688ZM1.35188 30.125V29.4102H5.14875V28.3789H6.06281V29.4102H9.80109V30.125H1.35188ZM2.93391 38.0938H8.28938V36.5469H2.93391V38.0938ZM3.20344 32.0234C3.19758 32.5566 4.07648 32.8555 5.60578 32.8555C7.13508 32.8555 8.00227 32.5566 8.00813 32.0234C8.00227 31.4844 7.13508 31.2031 5.60578 31.1914C4.07648 31.2031 3.19758 31.4844 3.20344 32.0234ZM20.0756 28.5312V38.9492H19.185V28.5312H20.0756ZM10.9936 35.5859C11.3159 35.5859 11.6909 35.5859 12.0952 35.5801V30.6289H11.2163V29.8672H16.0092V30.6289H15.1303V35.457C15.5229 35.4219 15.8979 35.3867 16.2436 35.3398L16.3022 36.0195C14.6557 36.3242 12.4702 36.377 11.1108 36.3711L10.9936 35.5859ZM12.9389 35.5625C13.3725 35.5508 13.8295 35.5332 14.2748 35.5098V30.6289H12.9389V35.5625ZM15.7045 33.3242V32.4922H17.1577V28.7891H18.0366V38.3984H17.1577V33.3242H15.7045ZM29.9517 28.5312V38.9727H29.0259V28.5312H29.9517ZM21.7486 32.9727C21.7545 30.7578 22.856 29.3457 24.4088 29.3398C25.9556 29.3457 27.0748 30.7578 27.0689 32.9727C27.0748 35.1934 25.9556 36.5996 24.4088 36.5938C22.856 36.5996 21.7545 35.1934 21.7486 32.9727ZM22.6392 32.9727C22.6392 34.666 23.3658 35.7793 24.4088 35.7734C25.4576 35.7793 26.1783 34.666 26.1783 32.9727C26.1783 31.2793 25.4576 30.166 24.4088 30.1602C23.3658 30.166 22.6392 31.2793 22.6392 32.9727ZM35.3395 31.7305C35.3454 33.5 36.6286 35.2988 38.1637 35.9609L37.6481 36.6875C36.4294 36.1367 35.3805 34.9355 34.8942 33.4941C34.4079 35.0234 33.3532 36.3477 32.1637 36.9453L31.613 36.2188C33.1071 35.5039 34.4079 33.5352 34.4137 31.7305V30.3711H31.9528V29.6094H37.8239V30.3711H35.3395V31.7305ZM39.277 38.9492V28.5312H40.2028V38.9492H39.277Z" fill="#B5B5B5"/>
<path d="M17 21.0002H13C11.8954 21.0002 11 20.1047 11 19.0002V10.3588C11 9.81057 11.225 9.28638 11.6225 8.90879L19.6225 1.30879C20.3944 0.575455 21.6056 0.575456 22.3775 1.30879L30.3775 8.90879C30.775 9.28638 31 9.81057 31 10.3588V19.0002C31 20.1047 30.1046 21.0002 29 21.0002H25C23.8954 21.0002 23 20.1047 23 19.0002V15.5002C23 14.3956 22.1046 13.5002 21 13.5002C19.8954 13.5002 19 14.3956 19 15.5002V19.0002C19 20.1047 18.1046 21.0002 17 21.0002Z" fill="#B5B5B5"/>
</svg>
